<?xml version="1.0" encoding="utf-8"?>
<!-- Generator: Adobe Illustrator 23.0.3, SVG Export Plug-In . SVG Version: 6.00 Build 0)  -->
<svg version="1.1" id="Calque_1" xmlns="http://www.w3.org/2000/svg" xmlns:xlink="http://www.w3.org/1999/xlink" x="0px" y="0px"
	 width="312px" height="119px" viewBox="0 0 312 119" style="enable-background:new 0 0 312 119;" xml:space="preserve">
<style type="text/css">
	.st0{fill:#FFFFFF;}
	.st1{fill:#0075BE;}
</style>
<g>
	<path class="st0" d="M120.28,1.44v11.47c0,0.38,0.24,0.73,0.61,0.85l1.2,0.42c0.32,0.11,0.56,0.4,0.6,0.74l0.41,3.28
		c0.07,0.56-0.38,1.04-0.94,1.01l-21.76-1.17c-0.37-0.02-0.72,0.19-0.87,0.53l-1.14,2.53c-0.35,0.77-1.47,0.68-1.69-0.13l-0.67-2.45
		c-0.1-0.37-0.43-0.64-0.82-0.66L65.8,16.15c-0.43-0.03-0.82,0.26-0.93,0.68c-0.32,1.29-0.98,3.83-1.09,3.74
		C50.72,9.13,17.06,6.1,5.24,32.74c-5.42,12.21-1.98,29.99,10.2,39.22c0.39,0.3,0.49,0.85,0.2,1.25L0.91,93.44
		c-0.2,0.28-0.23,0.65-0.07,0.96c18.66,35.43,56.55,23.42,63.47,14.87c0.18-0.22,0.44-0.35,0.72-0.35l25.35,0.22
		c0.45,0,0.83-0.32,0.9-0.76l0.55-3.55c0.08-0.49,0.53-0.83,1.02-0.76l2.08,0.3c0.46,0.07,0.79,0.47,0.77,0.93l-0.16,4.32
		c-0.02,0.51,0.39,0.94,0.9,0.94h30.74c0.52,0,0.93-0.43,0.9-0.94c-0.1-2.16-0.31-7.24,0.05-6.89c11.36,10.9,31.78,4.92,37.77-4.83
		c0.17-0.28,0.47-0.45,0.79-0.44l23.05,0.49c0.31,0.01,0.6,0.17,0.76,0.44l5.38,9.03c0.16,0.27,0.45,0.44,0.76,0.44l2.87,0.04
		c0.22,0,0.43-0.07,0.6-0.22l11.33-9.7c0.53-0.45,1.34-0.16,1.47,0.52l1.54,8.16c0.09,0.49,0.56,0.81,1.05,0.72l26.94-4.95
		c0.41-0.08,0.72-0.42,0.74-0.84l0.24-4.65c0.04-0.85,1.18-1.18,1.63-0.45c0.01,0.01,0.01,0.02,0.02,0.03
		c8.57,14.53,35.75,15.56,49.24,4.98c13.57-10.64,15.64-38.79,1.19-47.86c-0.39-0.25-0.55-0.74-0.35-1.16l10.79-22.79
		c0.12-0.25,0.12-0.55-0.01-0.8c-10.41-20.3-48.62-27.36-62.28-4.05c-0.2,0.34-20.93,3.16-20.98,3.03
		C215.01,7.84,177.81,7.5,172.07,7.57c-0.44,0.01-0.82-0.32-0.9-0.75c-0.51-2.82,0.06-3.4-1.87-3.56
		c-5.57-0.46-14.74-0.03-18.09,0.03c-0.35,0.01-0.66-0.19-0.82-0.5l-0.86-1.72c-0.15-0.3-0.45-0.49-0.78-0.5
		c-3.49-0.09-22.83-0.54-27.69-0.02C120.62,0.59,120.28,0.98,120.28,1.44z"/>
	<g>
		<path class="st1" d="M62.57,70.92c-6.85-13.19-23.73-12.35-30.33-20.18c-4.05-4.65-2.15-10.48,8.06-10.48
			c4.65,0,8.78,2.12,12.63,6.5c0.94,1.06,2.66,0.76,3.18-0.55c4.96-13.43,6.4-14.06,5.12-15.59c-8-9.58-16.68-10.76-27.28-9.27
			c-5.46,0.77-9.77,2.22-12.81,4.31c-7.45,5.09-9.91,14.13-8.73,22.55c1.09,7.81,4.54,13.5,12.21,17.47
			c5.39,2.79,11.09,5.44,16.94,7.87c3.77,1.56,7.57,4.05,7.79,8.1c0.06,1.24,0.2,4.53-7.38,5.94c-0.38,0.05-0.98,0.17-1.92,0.17
			c-4.67,0-9.36-3.51-13.93-10.42c-0.76-1.14-2.47-1.13-3.2,0.06c-7.3,12.72-9.21,13.37-7.92,15.18
			c8.27,11.6,18.85,16.12,35.69,10.62c7.83-2.52,12.54-7.31,13.98-14.22C65.97,82.73,65.48,76.58,62.57,70.92"/>
		<path class="st1" d="M119.96,28.32c-16.18-1.6-14.96-1.49-15.14-1.49c-0.86,0-1.62,0.58-1.84,1.43
			c-1.89,7.51-4.46,16.92-7.68,28.04C89.82,28.77,92,26.4,88.83,26.4l-18.9,0.44c-1.04,0.02-1.87,0.89-1.85,1.93
			c0.18,9.79,0.27,20.39,0.27,31.52c0,38.23-0.75,36.01,0.27,37.05c0.36,0.36,0.84,0.56,1.35,0.56c12.62-0.2,12.86,0.45,13.85-0.58
			c1.03-1.07,0.18,1.27-0.11-33.72l2.8,14.1c0.17,0.85,0.89,1.47,1.75,1.52c9.85,0.56,8.6,0.5,8.71,0.5c0.8,0,1.53-0.51,1.79-1.28
			l6.01-17.42c-0.22,11.57-0.75,24.15-1.58,37.56c-0.07,1.09,0.8,2.01,1.89,2.01c13.2-0.19,13.35,0.44,14.34-0.57
			c1.67-1.7-1.26-6.89,2.24-69.69C121.72,29.3,120.97,28.42,119.96,28.32"/>
		<path class="st1" d="M201.1,35.85c-0.09,0.99-0.53,2.19-1.33,3.56c-1.08,1.85-4.59,4.83-14.89,8.79l1.71-17.66
			c2.88,0.1,5.59,0.29,8.47,0.64C197.81,31.55,201.35,33.08,201.1,35.85 M202.85,19.99c-4.92-2.3-12.79-3.89-24.04-4.88
			c-0.91-0.08-3.96-0.32-4.31-0.32c-3.53,0-0.74,1.09-6.9,71.55c-0.1,1.1,0.76,2.04,1.86,2.06c16.09,0.2,10.72,0.15,11.84,0.15
			c1.03,0,1.87-0.82,1.89-1.86l0.38-19.17c15.7,24.81,13.96,26.52,16.43,26.52c0.39,0,0.77-0.12,1.1-0.35l12.11-8.58
			c0.88-0.63,1.06-1.86,0.4-2.71c-7.39-9.49-13.45-17.4-18.03-23.55c11.49-4.94,17.7-9.97,18.95-15.36
			C217.07,31.57,213.41,24.9,202.85,19.99"/>
		<path class="st1" d="M246.53,56.03c-0.89-0.69-0.42-0.5-16.41,1.6l-0.99-9.44c5.66-0.45,10.76-0.68,15.18-0.68
			c1.11,0,1.98-0.95,1.89-2.06c-1-9.41-0.42-10.03-1.54-10.92c-0.4-0.32-0.92-0.47-1.45-0.39l-24.37,3.53
			c-1,0.15-1.71,1.05-1.61,2.06c5.61,56.37,3.51,55.05,5.18,56.34c0.43,0.33,0.99,0.47,1.54,0.35l9.66-2.02
			c0.93-0.2,1.58-1.06,1.5-2.01l-1.7-20.98l13.48-1.9c1.02-0.14,1.74-1.08,1.61-2.11C247.13,56.28,247.37,56.68,246.53,56.03z"/>
		<path class="st1" d="M296.63,73.92c-2.07-19.73-22.72-18.6-29.29-26.97c-3.23-3.98-2.24-9.11,7.13-9.11
			c4.42,0,8.26,2.07,11.75,6.32c0.9,1.09,2.63,0.85,3.2-0.44c4.91-12.05,6.39-12.73,5.17-14.3c-5-6.44-11.53-9.93-19.65-9.77
			c-5.6,0.14-12.46,0.88-17.18,3.9c-7.1,4.5-9.62,12.79-8.8,20.56c0.76,7.25,3.76,12.62,10.72,16.54
			c14.89,8.39,21.94,9.04,22.1,15.31c0.01,1.1,0.04,4.02-6.82,5.06c-0.35-0.15-6.6,2.35-14.06-9.84c-0.72-1.18-2.43-1.21-3.2-0.05
			c-6.94,11.22-8.98,12-7.75,13.84c7.32,11.05,17.01,15.45,32.58,10.95c7.33-2.08,11.83-6.36,13.39-12.71
			C296.7,79.99,296.94,76.87,296.63,73.92"/>
		<path class="st1" d="M163.5,39.22c-0.08,0-10.12,0.33-9.48,0.31c-1.02,0.03-1.83,0.87-1.83,1.89c0,8.58-0.08,23.18-0.74,31.71
			c-0.74,8.8-6.79,8.34-6.71,8.32c-6.23-0.22-5.18-8.02-4.96-14.31c1.09-31.43,2.23-31.22,1.04-32.5c-0.35-0.38-0.84-0.6-1.36-0.6
			c-15.43-0.24-10.82-0.18-11.72-0.18c-1.03,0-1.87,0.82-1.89,1.85c-0.41,15.94-0.56,29.83-0.46,41.27
			c0.12,13.22,7.73,19.66,18.74,19.66c0.04,0,0.07,0,0.11,0c11.56-0.68,18.31-7.02,19.53-18.33c1.25-12.01,1.64-25.09,1.62-37.19
			C165.39,40.07,164.54,39.22,163.5,39.22"/>
		<path class="st1" d="M140.98,8.59c-0.22-0.54-1.03-0.28-1.79-0.22c-0.35,0.03-11.91,0.79-11.61,0.79c-0.21,0,0.12,1.86,0.76,1.99
			c0.35,0.07,2.74,0.33,3.26,0.35c0.43,0,0.38,0.02,0.38,0.33c0,5.38,1.14,16.1,1.14,16.18c0.11,0.79,1.6,0.82,2.39,0.76
			c0.42,0,0.14-0.14,0.14-8.32l-0.01-0.01c0,0-0.04-3.17-0.04-6.76c0.06-0.98,0.08-0.68,0.08-1.96l0.05-0.05
			c0.26-0.13,4.3,0.19,4.7-0.49C141.12,9.99,141.1,8.89,140.98,8.59"/>
		<path class="st1" d="M150.85,8.56c-0.62-0.15-2.57,0.35-2.69,0.6c-0.63,3.3-0.31,13.2-0.44,13.46l-0.03,0.03
			c-0.68,0-1.25-0.1-3.26-0.24c-0.3-0.15,0.71-8.98,0.76-9.65c0.01-0.03,0.32-2.39-0.35-2.56c-0.59-0.2-1.69,0.14-2.28,0.27
			c-0.5,0.21-0.5-0.24-0.76,2.42c-0.88,10.49,0.6,9.27-1.36,9.27c0,0.04-0.14,0.2-0.14,0.71c0.1,0.5,1.11,0.15,1.11,0.65
			c0.05,4.92-0.12,4.85,0.16,5.14c0.01,0.01,0.37,0.54,2.04,0.54c0.36,0,0.36-5.6,0.73-5.22l0.98,0.19
			c3.12,0.72,2.31,0.05,2.47,1.36c0.07,3.53-0.04,2.78,0.46,3.32c0.78,0.47,1.89,0.34,1.79,0.35c0.08,0,0.18,0.21,0.33-3.4
			C150.39,16.48,152.18,8.82,150.85,8.56"/>
		<path class="st1" d="M162.44,26.86c-0.07-0.26-0.37-0.13-1.11-0.16c-0.16-0.01-6.02-0.12-6.17-0.27c-0.19,0-0.01-0.37,0.05-1.55
			c0.25-2.47,0.11-2.27,0.3-2.37c0.08,0,2.66-0.36,2.58-0.35c0.96-0.09,1.38,0.03,1.52-0.33c0.08-0.25,0.12-0.97,0-1.09
			c-0.5-0.25-3.2,0.17-3.92,0.35c-0.02,0-0.16,0.02-0.16-0.08c0.01-0.02,0.38-4.53,0.41-4.6c0.3-3.26,0.4-3.32,0.49-3.32
			c0.58-0.02,5.39-0.17,5.71-0.65c0-0.01,0.19-0.62,0.19-1.22c0-0.65,0.05-2.47-0.63-2.34c-0.08,0-6.06,1.27-7.67,1.44
			c-0.35,0.08-0.93,0.15-1.03,0.44c-0.57,1.52-0.68,11.89-0.72,12.56h-0.01c0.1,5.01-0.22,5,0.27,5.41c0.49,0.39,1.02,0.27,5.49,1.2
			c3.88,0.63,3.81,0.79,4.21-0.82C162.52,28.29,162.64,27.16,162.44,26.86"/>
	</g>
	<g>
		<g>
			<polygon class="st0" points="304.27,93.63 305.39,93.63 305.39,96.58 306.19,96.58 306.19,93.63 307.3,93.63 307.3,93.04 
				304.27,93.04 			"/>
			<polygon class="st0" points="310.31,93.04 309.69,95.42 309.07,93.04 307.71,93.04 307.71,96.58 308.51,96.58 308.51,93.85 
				309.26,96.58 310.09,96.58 310.84,93.85 310.84,96.58 311.64,96.58 311.64,93.04 			"/>
		</g>
	</g>
</g>
</svg>
